<?xml version="1.0" encoding="UTF-8" standalone="no"?>
<!-- Created with Inkscape (http://www.inkscape.org/) -->

<svg
   xmlns:dc="http://purl.org/dc/elements/1.1/"
   xmlns:cc="http://creativecommons.org/ns#"
   xmlns:rdf="http://www.w3.org/1999/02/22-rdf-syntax-ns#"
   xmlns:svg="http://www.w3.org/2000/svg"
   xmlns="http://www.w3.org/2000/svg"
   xmlns:sodipodi="http://sodipodi.sourceforge.net/DTD/sodipodi-0.dtd"
   xmlns:inkscape="http://www.inkscape.org/namespaces/inkscape"
   id="svg3390"
   version="1.1"
   inkscape:version="0.91 r13725"
   width="413"
   height="413"
   viewBox="0 0 413 413"
   sodipodi:docname="logo.svg"
   inkscape:export-filename="/Users/berto/workspace/projects/numinousbodyworks/themes/hugo-future-imperfect/static/img/image3398.png"
   inkscape:export-xdpi="90"
   inkscape:export-ydpi="90">
  <metadata
     id="metadata3396">
    <rdf:RDF>
      <cc:Work
         rdf:about="">
        <dc:format>image/svg+xml</dc:format>
        <dc:type
           rdf:resource="http://purl.org/dc/dcmitype/StillImage" />
        <dc:title></dc:title>
      </cc:Work>
    </rdf:RDF>
  </metadata>
  <defs
     id="defs3394" />
  <sodipodi:namedview
     pagecolor="#ffffff"
     bordercolor="#666666"
     borderopacity="1"
     objecttolerance="10"
     gridtolerance="10"
     guidetolerance="10"
     inkscape:pageopacity="0"
     inkscape:pageshadow="2"
     inkscape:window-width="1099"
     inkscape:window-height="687"
     id="namedview3392"
     showgrid="false"
     inkscape:zoom="0.473402"
     inkscape:cx="129.662"
     inkscape:cy="342.107"
     inkscape:window-x="109"
     inkscape:window-y="0"
     inkscape:window-maximized="0"
     inkscape:current-layer="svg3390" />
  <path
     style="fill:#000000"
     d="m 183.60156,381.95434 c 5.3013,-5.75122 6.58518,-8.57498 5.53537,-12.17445 -0.45296,-1.55306 -0.85606,-3.27733 -0.89578,-3.83173 -0.0397,-0.55439 -1.03056,-2.57939 -2.20186,-4.5 -1.1713,-1.9206 -2.81069,-5.51701 -3.64309,-7.99201 -0.8324,-2.475 -2.90308,-7.1332 -4.6015,-10.35155 -1.69843,-3.21835 -3.08805,-6.6737 -3.08805,-7.67857 0,-1.00486 -0.68304,-2.51006 -1.51786,-3.34488 -0.83482,-0.83482 -1.39732,-2.08098 -1.25,-2.76925 0.15953,-0.74529 -2.3609,-2.12388 -6.23214,-3.40877 -14.11449,-4.68466 -30.47953,-13.45136 -37.34419,-20.00516 -1.1857,-1.13201 -3.95581,-3.36138 -6.15581,-4.95417 -5.27711,-3.8206 -18.44798,-16.7628 -17.92316,-17.61198 0.22642,-0.36636 -0.23131,-0.91283 -1.01717,-1.2144 -0.78586,-0.30156 -1.98195,-1.58622 -2.65798,-2.85478 -1.049941,-1.97022 -1.016161,-2.1607 0.23172,-1.30649 0.80347,0.55 0.53964,0.16177 -0.58628,-0.86273 -1.125931,-1.0245 -2.103381,-2.262 -2.172131,-2.75 -0.0687,-0.488 -0.18125,-1.30513 -0.25,-1.81584 -0.0687,-0.51072 -0.8809,-1.68446 -1.80476,-2.60833 -3.52946,-3.52946 -11.82365,-20.20977 -13.65589,-27.46311 -0.99875,-3.95381 -1.91996,-5.59757 -3.27684,-5.84706 -1.03813,-0.19089 -2.31501,-0.75339 -2.83751,-1.25 -0.5225,-0.49662 -1.62075,-0.90294 -2.44056,-0.90294 -0.81981,0 -4.89231,-1.63291 -9.05,-3.62869 -4.15769,-1.99579 -10.72786,-5.1415 -14.60037,-6.99048 -3.87252,-1.84898 -9.14343,-3.64996 -11.71315,-4.00218 -4.54585,-0.62308 -4.83548,-0.49896 -10.70907,4.58942 -4.61803,4.00067 -6.03018,4.79527 -6.00847,3.38087 0.0358,-2.33298 6.25773,-9.30789 11.36117,-12.73613 4.36115,-2.92961 8.15471,-3.32075 11.24103,-1.15901 1.14158,0.79959 3.15421,1.67349 4.47251,1.942 4.79962,0.97757 9.16307,2.56369 12.54961,4.5618 1.90389,1.12332 4.117,2.0424 4.91803,2.0424 0.80102,0 2.2378,0.38968 3.19284,0.86596 8.47659,4.22726 29.46973,9.76441 40.736431,10.74463 15.31788,1.33268 17.8359,0.98418 22.34906,-3.09319 6.57568,-5.94073 8.90598,-10.25668 9.37417,-17.36187 0.57323,-8.69934 -0.43823,-9.30553 -15.39782,-9.22816 -13.92322,0.072 -16.7327,0.84031 -21.53917,5.89027 -3.29058,3.45727 -4.55834,4.07436 -9.684211,4.7139 -3.60571,0.44988 -8.53877,0.26394 -12.69278,-0.47842 -5.75471,-1.02843 -7.16602,-1.70098 -9.21986,-4.39371 -1.33378,-1.74867 -2.70873,-4.5249 -3.05544,-6.16941 -0.75532,-3.58261 1.31403,-8.10178 3.53813,-7.7268 0.85862,0.14476 2.12625,-0.41774 2.81696,-1.25 0.69072,-0.83226 2.07419,-1.5132 3.07439,-1.5132 1.00019,0 2.09665,-0.45 2.43657,-1 0.33992,-0.55 1.91492,-1 3.5,-1 1.58508,0 3.12697,-0.39643 3.42642,-0.88095 0.30702,-0.49677 3.30776,-0.36166 6.881,0.30982 4.590761,0.8627 7.516551,2.13857 10.619531,4.63095 l 4.28298,3.44018 11.64503,-0.31559 c 6.40477,-0.17358 13.22004,-0.64022 15.14504,-1.03698 3.46374,-0.71391 3.50312,-0.78108 3.80136,-6.48327 0.35403,-6.76886 -1.33025,-10.13165 -8.28563,-16.5429 -3.82227,-3.52324 -5.16354,-4.14713 -9.24339,-4.29954 -13.94031,-0.52077 -28.828491,1.85733 -42.772341,6.83206 -3.85,1.37356 -9.65875,3.36741 -12.90834,4.43077 -3.24959,1.06336 -6.42893,2.36544 -7.06521,2.8935 -1.7402,1.44423 -19.34745,7.02195 -22.16629,7.02195 -3.73318,0 -7.4372,-2.30587 -12.64164,-7.86984 -7.02294,-7.50808 -6.09327,-9.45197 1.49,-3.11554 6.07867,5.07921 6.31096,5.17413 11.10612,4.53803 2.69368,-0.35733 6.08734,-1.52529 7.54148,-2.59547 1.45413,-1.07018 5.11888,-2.81297 8.14388,-3.87286 3.025,-1.05989 8.1332,-3.31246 11.35155,-5.0057 3.21835,-1.69324 6.61585,-3.07862 7.55,-3.07862 0.93415,0 2.25573,-0.55728 2.93684,-1.23839 0.68112,-0.68112 1.9593,-1.24362 2.84039,-1.25 1.13217,-0.008 2.43413,-2.61061 4.43931,-8.87346 9.01987,-28.17199 31.446081,-54.92443 58.883261,-70.24244 4.67426,-2.60961 13.22365,-6.41705 18.99865,-8.46099 7.44424,-2.63472 10.4234,-4.14575 10.2368,-5.19208 -0.14476,-0.81171 0.41774,-2.04096 1.25,-2.73168 0.83226,-0.69072 1.5132,-2.07384 1.5132,-3.07361 0,-0.99977 1.37403,-4.43217 3.0534,-7.62755 1.67937,-3.195388 3.98591,-8.509797 5.12563,-11.809797 1.13972,-3.3 2.83826,-6.9 3.77453,-8 0.93628,-1.1 1.84001,-3.125 2.00829,-4.5 0.60064,-4.90759 0.3664,-9.181001 -0.54041,-9.859301 -2.58294,-1.93206 -8.71364,-9.18183 -8.19938,-9.69608 1.13246,-1.13246 6.57428,2.51711 10.63943,7.13535 4.65619,5.289711 6.05813,10.248851 4.20121,14.861071 -0.67736,1.68243 -1.81911,5.1634 -2.53723,7.73549 -0.71812,2.5721 -2.06931,6.1721 -3.00264,8 -0.93333,1.827909 -2.52149,5.856007 -3.52925,8.951327 -1.00776,3.09531 -2.7244,7.59531 -3.81476,10 -2.52193,5.56187 -6.89198,25.32959 -7.5313,34.06741 -0.26942,3.6824 -0.14276,9.2531 0.28148,12.37933 0.68141,5.0213 1.28437,6.14596 5.17118,9.64528 2.41991,2.17867 5.52483,4.53432 6.89983,5.23478 3.70948,1.88973 14.6751,2.64175 15.95922,1.09448 1.68212,-2.02684 2.26058,-12.32686 1.27029,-22.61902 -0.91272,-9.48607 -0.95725,-9.60432 -5.08316,-13.5 -3.2677,-3.08536 -4.3536,-4.98193 -5.05205,-8.82355 -0.94385,-5.19139 -0.61792,-10.71995 0.99307,-16.8445 2.24709,-8.54285 17.91262,-12.53262 17.91262,-4.56207 0,0.99 0.38886,1.8 0.86414,1.8 1.56171,0 4.31939,8.94625 4.40051,14.27582 0.0829,5.44395 -1.48623,12.57954 -2.99512,13.62048 -0.48131,0.33204 -1.86385,2.23183 -3.07232,4.22174 -1.83051,3.01422 -2.1972,5.11424 -2.1972,12.58322 0,4.93085 0.51212,11.51524 1.13805,14.63197 l 1.13804,5.66677 6.27215,0 c 5.77453,0 6.65614,-0.30585 11.11195,-3.85494 6.92136,-5.51293 7.98227,-7.03796 8.79673,-12.64505 0.86238,-5.93696 0.859,-5.33113 0.0753,-13.5 -1.25042,-13.03479 -5.85552,-30.66184 -11.14263,-42.65114 -0.76428,-1.73312 -1.3896,-3.60864 -1.3896,-4.16783 0,-0.559188 -1.07713,-3.191188 -2.39362,-5.848867 -1.31649,-2.65769 -2.72069,-6.40717 -3.12044,-8.33217 -0.39975,-1.925 -1.34762,-4.71515 -2.10638,-6.20034 -0.75876,-1.48519 -1.37956,-3.78489 -1.37956,-5.11045 0,-3.97281 6.40491,-12.214281 12.78121,-16.446121 4.0473,-2.68613 3.57278,-0.47659 -1.06494,4.95873 -2.48638,2.914 -4.64117,5.973181 -4.78842,6.798181 -0.39001,2.18515 1.18317,11 1.96317,11 0.36516,0 1.92301,3.0375 3.46189,6.75 1.53888,3.7125 4.35179,9.809799 6.25092,13.549547 1.89913,3.73975 3.21105,7.19097 2.91537,7.66938 -0.29567,0.47841 0.14155,1.54897 0.97161,2.37903 0.83005,0.83005 1.50919,2.22218 1.50919,3.09361 0,1.73575 3.89228,3.68619 17,8.5188 4.675,1.7236 12.00064,5.25315 16.2792,7.84345 7.32823,4.4366 22.51335,16.01395 22.65562,17.27296 0.0358,0.31723 2.12254,2.79223 4.6371,5.5 2.51455,2.70778 6.08588,7.17323 7.93628,9.92323 1.85041,2.75 4.39199,6.09988 5.64795,7.44418 1.25597,1.3443 2.35382,2.92276 2.43967,3.5077 0.0858,0.58493 2.20619,5.33505 4.71187,10.55581 2.50567,5.22077 5.41928,12.08759 6.47468,15.2596 2.09002,6.28159 2.38109,6.75663 4.376,7.14181 1.71758,0.33164 5.5518,1.96594 14.54509,6.19971 3.96191,1.86515 7.78691,3.39286 8.5,3.39492 0.7131,0.002 2.75904,0.89544 4.54654,1.9853 1.7875,1.08986 3.25,1.68474 3.25,1.32195 0,-0.36279 1.06337,0.33937 2.36305,1.56035 1.29967,1.22098 2.76217,2.12368 3.25,2.006 0.48782,-0.11769 2.52707,0.12796 4.53165,0.54588 4.31738,0.9001 6.4061,-0.0462 12.49959,-5.66298 5.10354,-4.70429 6.08106,-2.88992 1.60571,2.98035 -4.47753,5.87312 -9.90508,9.25941 -14.84102,9.25941 -2.36002,0 -4.53485,-0.39465 -4.83296,-0.877 -0.29812,-0.48236 -2.68717,-1.38757 -5.30902,-2.01159 -2.62185,-0.62402 -7.242,-2.23014 -10.267,-3.56914 -18.2229,-8.06631 -41.27317,-14.40551 -53.5,-14.71337 -15.34698,-0.38642 -15.41646,-0.36759 -21.19408,5.74215 -5.87751,6.21538 -7.60832,10.55804 -7.12973,17.88871 0.39329,6.02393 1.0695,6.31574 14.82381,6.39701 13.6983,0.0809 17.68982,-0.90211 21.41232,-5.27349 3.46252,-4.0661 7.65024,-5.60437 15.08108,-5.53973 12.73364,0.11077 18.89158,3.6724 20.08272,11.61546 0.72325,4.82304 -0.55611,7.34099 -3.72995,7.34099 -1.04992,0 -2.16796,0.675 -2.48454,1.5 -0.31659,0.825 -1.6259,1.5 -2.9096,1.5 -1.2837,0 -2.57961,0.39741 -2.8798,0.88313 -0.89035,1.44061 -10.86608,2.28561 -15.27862,1.29418 -2.24905,-0.50533 -5.98598,-2.43945 -8.30428,-4.29805 l -4.21509,-3.37926 -12.13712,0.27913 c -6.67542,0.15352 -13.71212,0.61949 -15.63712,1.03549 -3.20264,0.6921 -3.52797,1.09319 -3.82916,4.72087 -0.18104,2.18048 0.15418,5.53951 0.74493,7.46451 1.16047,3.7815 8.1843,12.03867 11.83729,13.91585 4.81676,2.47522 24.91404,0.90904 38.74694,-3.01953 8.58769,-2.43893 18.40534,-5.74201 20.73643,-6.97664 0.95504,-0.50583 2.68557,-0.91968 3.84563,-0.91968 1.16006,0 3.30367,-0.84732 4.76357,-1.88293 1.4599,-1.0356 5.57937,-2.7943 9.15437,-3.90821 3.575,-1.11391 7.92591,-2.60144 9.66868,-3.30562 2.7336,-1.10453 3.73032,-1.02706 7.25903,0.56416 4.97533,2.24357 13.07229,10.64864 13.07229,13.56975 0,1.811 -0.84461,1.36408 -5.75,-3.04258 l -5.75,-5.1654 -5.45791,0.61859 c -3.00186,0.34022 -6.15186,1.20448 -7,1.92058 -1.8862,1.59253 -10.59529,5.63166 -12.14287,5.63166 -0.61742,0 -4.03873,1.575 -7.6029,3.5 -3.56417,1.925 -7.12002,3.5 -7.90189,3.5 -0.78186,0 -2.20296,0.41715 -3.158,0.927 -0.95504,0.50985 -2.41143,1.1301 -3.23643,1.37832 -0.86205,0.25937 -2.51531,3.79913 -3.88729,8.323 -4.32549,14.26257 -16.104,34.63627 -25.30911,43.77805 -2.71719,2.6985 -6.0886,6.41181 -7.49203,8.2518 -6.2994,8.25894 -27.31692,21.26497 -44.90861,27.79029 -7.86347,2.91682 -10.17209,4.22309 -11.15883,6.31398 -0.68427,1.44996 -1.24413,3.23697 -1.24413,3.97111 0,0.73415 -1.54378,4.35694 -3.43061,8.05064 -1.88684,3.6937 -4.4523,9.19082 -5.70104,12.21582 -1.24873,3.025 -2.80487,6.175 -3.45809,7 -0.65322,0.825 -1.62857,3.61577 -2.16744,6.20171 -1.1067,5.31086 -0.23417,7.34526 6.02515,14.04829 3.21022,3.43778 3.32118,3.75 1.33274,3.75 -1.30216,0 -4.20778,-2.0982 -7.27029,-5.25 -7.69394,-7.91828 -8.64628,-10.65563 -5.90264,-16.96607 0.78528,-1.80616 2.17822,-5.74977 3.09542,-8.76357 0.91721,-3.0138 2.51141,-6.6646 3.54268,-8.11288 1.03127,-1.44828 1.62487,-2.8834 1.31912,-3.18915 -0.30575,-0.30575 0.11149,-2.05495 0.92721,-3.88712 6.82209,-15.32298 13.51791,-45.88192 11.57912,-52.84574 -0.38058,-1.36701 -0.73683,-3.88639 -0.79165,-5.59863 -0.0756,-2.36192 -1.26085,-4.19929 -4.91163,-7.61417 -6.24081,-5.83755 -7.39781,-6.37585 -15.39057,-7.16058 -5.80776,-0.57021 -6.82724,-0.42138 -7.63692,1.11493 -1.46101,2.77214 -1.89503,11.41547 -1.10062,21.91885 l 0.72731,9.61635 4.1241,3.61889 c 3.46577,3.04121 4.30481,4.54606 5.25612,9.42712 1.62422,8.33364 -0.25923,18.44744 -4.12513,22.1512 -4.96778,4.75945 -16.01049,4.35084 -14.73019,-0.54505 0.27534,-1.05291 0.0768,-1.91438 -0.4413,-1.91438 -1.38206,0 -5.06742,-9.14029 -4.52369,-11.21949 0.2558,-0.97818 0.12321,-1.98981 -0.29464,-2.24806 -1.73659,-1.07327 1.27599,-11.98507 4.57771,-16.58082 l 3.36978,-4.69049 -0.11831,-11.88057 c -0.0651,-6.53431 -0.4055,-13.23057 -0.75649,-14.88057 -0.62248,-2.92619 -0.80057,-3.00719 -7.23823,-3.29242 -6.38765,-0.28301 -6.76504,-0.162 -11.72729,3.76044 -7.89299,6.23903 -8.45478,7.52885 -8.41858,19.3279 0.035,11.41169 2.92765,27.1275 6.93977,37.70408 1.35614,3.575 3.1337,8.525 3.95012,11 0.81642,2.475 1.75488,5.175 2.08547,6 0.33058,0.825 0.52962,1.8375 0.4423,2.25 -0.0873,0.4125 0.22964,0.75 0.70435,0.75 0.47471,0 1.62645,2.5875 2.55942,5.75 0.93297,3.1625 2.34457,7.22777 3.13689,9.03393 1.87326,4.27026 1.82081,7.61253 -0.18584,11.84123 -2.00612,4.22759 -9.94941,11.37484 -12.64173,11.37484 -1.66177,0 -1.30811,-0.73604 2.16305,-4.50181 z M 211.52251,326.57 c 2.52556,-4.49364 2.77056,-8.7746 0.77543,-13.54961 -1.60688,-3.84582 -4.53783,-5.1984 -7.6525,-3.53147 -1.96572,1.05202 -2.10883,1.8047 -1.78778,9.40269 0.35974,8.51329 1.62285,11.56454 4.7873,11.56454 0.93138,0 2.67628,-1.74877 3.87755,-3.88615 z m 47.6464,-27.09344 c 5.06538,-2.73878 11.26513,-6.78878 13.77722,-9 2.51208,-2.21123 4.95802,-4.02041 5.43542,-4.02041 0.4774,0 3.32369,-3.15 6.3251,-7 4.9516,-6.35157 7.26109,-8.84951 5.40451,-5.84549 -0.4272,0.69121 -0.27582,0.88399 0.37722,0.48039 2.59696,-1.60501 13.38794,-19.69057 16.26724,-27.26371 0.94667,-2.48994 0.92555,-2.5011 -3.7985,-2.008 -2.61276,0.27273 -4.8223,0.52758 -4.91008,0.56633 -0.0878,0.0388 -2.04715,3.50965 -4.35413,7.7131 -4.37861,7.97805 -10.49015,16.99202 -11.89152,17.53892 -0.44881,0.17515 -2.74898,2.56846 -5.11148,5.31846 -4.9457,5.75689 -12.79889,11.7093 -21.66342,16.42 -3.85464,2.0484 -6.15741,3.90429 -6.11971,4.9321 0.0333,0.90635 -0.19338,2.8854 -0.50362,4.3979 -0.33336,1.62521 -0.13051,2.75 0.49594,2.75 0.58301,0 5.20442,-2.24082 10.26981,-4.97959 z m -94.83197,1.72959 c -0.33164,-1.2375 -0.60913,-2.70265 -0.61664,-3.25589 -0.008,-0.55324 -1.47615,-1.65037 -3.26365,-2.43807 -2.89718,-1.27671 -8.79478,-4.74446 -14.12338,-8.30445 -1.03036,-0.68838 -3.71045,-2.93909 -5.95576,-5.00159 -2.24531,-2.0625 -4.45657,-3.75 -4.91392,-3.75 -0.76001,0 -4.85167,-4.02949 -12.00694,-11.82451 -2.84296,-3.09714 -3.61417,-4.82761 -1.59549,-3.58 0.72104,0.44563 0.88282,0.27393 0.4309,-0.45729 -0.39798,-0.64395 -1.14251,-0.91193 -1.65451,-0.59549 -0.51199,0.31643 -0.98715,0.0988 -1.0559,-0.48369 -0.0687,-0.58246 -0.18125,-1.49443 -0.25,-2.0266 -0.0687,-0.53217 -0.9125,-1.88731 -1.875,-3.01143 -0.9625,-1.12413 -1.75,-2.40007 -1.75,-2.83543 0,-0.43536 -1.38893,-2.68022 -3.08651,-4.98857 -2.42376,-3.29581 -3.72478,-4.197 -6.05902,-4.197 -1.75883,0 -2.71604,0.41496 -2.34439,1.01631 0.34546,0.55897 0.99987,0.78656 1.45423,0.50575 1.09418,-0.67624 2.22456,2.36333 1.38443,3.72269 -0.37101,0.60031 -0.18772,0.77377 0.42045,0.3979 0.6431,-0.39746 2.80093,2.5668 5.34712,7.3455 2.34789,4.40652 4.62464,8.01186 5.05945,8.01186 0.4348,0 1.95795,2.30376 3.38478,5.11947 2.82613,5.57711 4.59679,7.45623 14.54679,15.43783 3.63403,2.91512 7.40903,6.10192 8.38888,7.08177 2.1325,2.1325 17.42697,10.29021 19.37042,10.33173 0.9328,0.0199 1.17522,-0.68505 0.76366,-2.2208 z m 1.36971,-13.41723 c 0,-2.33127 0.40314,-5.27234 0.89586,-6.53572 0.49272,-1.26338 1.49686,-4.32205 2.2314,-6.79705 0.84851,-2.85897 3.56711,-7.06616 7.4549,-11.53687 7.72908,-8.88796 8.41785,-10.22297 8.41785,-16.31584 0,-4.54197 -0.28835,-5.16348 -3.25,-7.00506 -3.4707,-2.15811 -10.43895,-9.11477 -13.02227,-13.00062 -1.17099,-1.7614 -2.68809,-2.44664 -5.99343,-2.70708 -5.30296,-0.41784 -8.42065,1.12193 -16.33079,8.06546 -3.13283,2.75 -6.19273,5.03588 -6.79979,5.07972 -0.60705,0.0438 -3.80373,1.31845 -7.10373,2.83245 -3.68348,1.68994 -7.96029,2.81742 -11.07734,2.92028 -4.66381,0.1539 -5.05737,0.3552 -4.83213,2.4715 0.45004,4.2286 8.25852,15.623 16.42267,23.96449 8.35011,8.53149 20.86765,18.51468 24.64649,19.65647 1.18784,0.3589 2.62541,1.2137 3.19461,1.89954 0.5692,0.68584 1.95984,1.24699 3.0903,1.24699 1.75059,0 2.0554,-0.62859 2.0554,-4.23866 z m 90.21059,-0.58277 c 16.52794,-10.58499 26.23296,-20.76491 36.56984,-38.35932 l 3.00177,-5.10931 -7.1411,-1.2175 c -9.62763,-1.64144 -14.2588,-3.91837 -22.6377,-11.12987 -7.63136,-6.56811 -10.48245,-7.79904 -16.1396,-6.9681 -2.87308,0.422 -4.465,1.58601 -7.58535,5.54638 -2.17204,2.75676 -6.26164,6.58176 -9.08802,8.5 -4.83228,3.27964 -5.1404,3.74364 -5.16464,7.77755 -0.0323,5.36763 2.4319,10.17247 8.81747,17.19303 2.74282,3.01557 4.81014,5.76894 4.59404,6.1186 -0.2161,0.34966 0.89758,3.29981 2.47484,6.55589 2.36825,4.88896 3.82592,10.141 4.05009,14.59265 0.0708,1.40494 1.6082,0.75256 8.24836,-3.5 z m -73.92806,-22.04608 c -0.25163,-0.43784 1.39747,-1.52473 3.66467,-2.41531 2.65571,-1.04319 3.778,-1.96342 3.15471,-2.58671 -1.53939,-1.53939 -3.43984,-0.27418 -8.17599,5.44307 -3.72448,4.496 -3.93144,4.94751 -1.3059,2.84889 1.71602,-1.37162 2.91415,-2.85209 2.66251,-3.28994 z m 52.71747,2.83126 c 0,-0.25565 -1.0125,-1.00432 -2.25,-1.66372 -2.04022,-1.08712 -2.12204,-1.04378 -0.87756,0.46482 1.27783,1.54902 3.12756,2.25809 3.12756,1.1989 z m -6.56944,-6.61191 c -1.21419,-1.34167 -2.02009,-1.65468 -2.27687,-0.88434 -0.2186,0.65581 0.21989,1.58344 0.97443,2.06141 2.49532,1.58069 3.21201,0.93298 1.30244,-1.17707 z m -26.87834,-3.39397 c 0.74147,-1.77462 1.65529,-8.36417 2.0307,-14.64346 0.68188,-11.4054 0.67982,-11.42016 -2.03907,-14.65137 -3.10515,-3.69027 -7.83064,-4.43574 -9.40996,-1.48448 -3.91468,7.3153 -1.2244,26.80747 4.62036,33.47643 1.87037,2.13413 3.05837,1.46631 4.79797,-2.69712 z m 18.52092,0.7207 c 0.64193,-2.0625 1.38559,-8.52119 1.65258,-14.35263 0.46544,-10.1659 0.3759,-10.77615 -2.17396,-14.81539 -2.90156,-4.59637 -3.96832,-4.74404 -6.80677,-0.94225 -3.98681,5.33992 -3.48201,25.03407 0.80955,31.58386 2.33036,3.55657 5.15151,2.91882 6.5186,-1.47359 z m -77.57314,-30.25001 c 0.99549,-1.1 1.58498,-2 1.30998,-2 -0.275,0 -1.31449,0.9 -2.30998,2 -0.99549,1.1 -1.58498,2 -1.30998,2 0.275,0 1.31449,-0.9 2.30998,-2 z m 129.5,0 c -0.5887,-1.1 -1.84203,-1.98999 -2.78518,-1.97776 -1.35986,0.0176 -1.19733,0.42702 0.78518,1.97776 3.14279,2.45833 3.31566,2.45833 2,0 z m -40.73229,-2.74332 c 1.68512,-1.86204 1.60856,-1.99461 -2.21884,-3.84263 -2.1803,-1.05273 -4.50928,-2.92655 -5.17551,-4.16405 -1.47698,-2.74346 -2.07394,-2.79083 -4.2914,-0.34057 -1.64293,1.81542 -1.63205,1.9399 0.2209,2.528 1.07191,0.34021 2.99833,2.59672 4.28095,5.01448 2.48144,4.67756 3.56883,4.79938 7.1839,0.80477 z m -44.21774,-0.3773 c 0.71093,-1.71634 2.16447,-3.93289 3.23009,-4.92566 1.76389,-1.64331 1.80185,-1.9987 0.42369,-3.9663 -1.46042,-2.08504 -1.53545,-2.093 -2.12807,-0.22582 -0.33786,1.06448 -2.40043,2.79109 -4.5835,3.83691 -2.18307,1.04582 -3.9744,2.1783 -3.98071,2.51663 -0.0189,1.01353 4.07013,5.88486 4.9398,5.88486 0.44335,0 1.38777,-1.40428 2.0987,-3.12062 z m -39.24997,-1.07938 c 1.44583,-1.44583 1.55957,-2.8 0.23518,-2.8 -0.53065,0 -1.44648,0.9 -2.03518,2 -1.1788,2.20261 -0.0876,2.68759 1.8,0.8 z m 119.05016,-1.8 c -0.5752,-1.65 -1.45179,-3 -1.94799,-3 -1.31483,0 -1.10399,3.39818 0.29783,4.8 2.06078,2.06078 2.73837,1.32165 1.65016,-1.8 z m -86.81989,-7.40134 c 4.65578,-3.08104 4.6659,-4.28796 0.0585,-6.9788 -9.98343,-5.83065 -39.34582,-0.4483 -32.87186,6.02565 1.95556,1.95557 13.92282,4.04271 21.99894,3.83672 5.45262,-0.13907 7.4868,-0.68147 10.81439,-2.88357 z m 73.17051,2.27973 c 7.65598,-1.62044 12.72758,-4.43821 12.78391,-7.10271 0.008,-0.39838 -1.44719,-1.49302 -3.23469,-2.43254 -2.3321,-1.22576 -6.525,-1.83113 -14.84572,-2.14343 -13.04088,-0.48946 -15.31984,0.18069 -17.39456,5.115 -1.57431,3.74419 -0.5538,6.34542 2.73809,6.97927 4.59394,0.88456 14.81617,0.67164 19.95297,-0.41559 z m -37.71555,-4.31687 c 3.15614,-1.84961 5.1826,-3.91562 6.17843,-6.29897 1.63183,-3.90552 1.26439,-6.57409 -1.78382,-12.95529 -2.37556,-4.97305 -6.32644,-6.71296 -12.99566,-5.72309 -9.01482,1.338 -15.13417,6.94764 -15.13417,13.87356 0,3.03763 4.52454,10.9038 7.51514,13.06548 3.18797,2.30435 10.43655,1.42769 16.22008,-1.96169 z m -13.07234,-7.92795 c -0.90396,-2.35569 -0.0584,-5.83815 1.68234,-6.9287 0.87738,-0.54966 2.81614,-0.69295 4.30836,-0.31843 2.42219,0.60793 2.68007,1.07948 2.40478,4.39726 -0.29119,3.50937 -0.51761,3.73361 -4.0664,4.02714 -2.61979,0.2167 -3.93099,-0.13988 -4.32908,-1.17727 z m -106.070221,3.25616 c 3.52479,-1.606 4.889931,-5.11264 3.02621,-7.77346 -1.19055,-1.69975 -2.50443,-2.11157 -6.67559,-2.09241 -9.01854,0.0414 -14.61168,2.02733 -14.67798,5.21158 -0.008,0.40449 1.67219,1.84052 3.73469,3.19117 4.11457,2.69446 10.48772,3.33346 14.59267,1.46312 z m 236.705631,-3.91558 c 3.31757,-1.77551 2.36793,-4.71899 -2.2983,-7.12377 -6.73574,-3.47132 -16.1817,-1.96286 -17.37057,2.77397 -0.82797,3.29892 0.0976,5.15097 2.80942,5.62168 3.84368,0.66717 14.77755,-0.15768 16.85945,-1.27188 z m -151.90402,-7.96457 c 2.14049,-2.14049 2.90023,-3.75864 2.67308,-5.69332 -0.27644,-2.35447 -1.00486,-2.87633 -5.65082,-4.04839 -8.67861,-2.18941 -26.16087,1.40559 -30.13776,6.19745 -3.02365,3.64328 5.25128,6.26361 20.29814,6.42759 9.64009,0.10505 9.88378,0.0502 12.81736,-2.88333 z m 77.21138,1.40102 c 7.21899,-1.86739 8.84731,-2.99049 8.4426,-5.82309 -0.3736,-2.61478 -6.80076,-4.45359 -18.45356,-5.27955 -7.14407,-0.50638 -8.73502,-0.29742 -12.83059,1.68521 -5.42791,2.62761 -6.42561,4.34215 -4.05258,6.96432 3.6039,3.98226 16.45218,5.1542 26.89413,2.45311 z m -64.35565,-12.44578 c 0,-0.53065 -0.43103,-0.96482 -0.95785,-0.96482 -0.52681,0 -2.14463,-2.0251 -3.59514,-4.50021 -2.65238,-4.52594 -3.22837,-4.67153 -6.69701,-1.6927 -2.53872,2.18023 -2.215,2.91504 2.29872,5.21777 2.2268,1.13602 4.29678,2.71193 4.59996,3.50201 0.4143,1.07965 1.02325,1.18389 2.45128,0.41963 1.04502,-0.55928 1.90004,-1.45103 1.90004,-1.98168 z m 37.93327,-1.96482 c 1.84298,0 1.16358,-2.56038 -1.29139,-4.8667 l -2.35812,-2.21534 -1.64188,2.50584 c -0.90304,1.37821 -1.64189,2.94931 -1.64189,3.49133 0,0.54202 -0.76624,1.4143 -1.70276,1.9384 -1.44308,0.80759 -1.4987,1.1988 -0.3647,2.56518 1.21502,1.46401 1.64133,1.38095 4.63604,-0.90322 1.81389,-1.38352 3.778,-2.51549 4.3647,-2.51549 z m -83.01898,-1.76562 c -0.68744,-1.10077 -2.52439,-2.75427 -4.0821,-3.67443 -1.55771,-0.92016 -2.8322,-2.09758 -2.8322,-2.61649 0,-0.5189 -0.5625,-0.92517 -1.25,-0.90282 -0.6875,0.0224 0.11694,1.25985 1.78764,2.75 1.6707,1.49015 3.60474,4.01532 4.29787,5.61149 0.86796,1.99878 1.58216,2.5802 2.29447,1.86789 0.7123,-0.7123 0.64517,-1.6572 -0.21568,-3.03564 z m 118.50225,-0.87751 c 0.94492,-2.46242 0.12918,-2.61737 -1.911,-0.363 -1.53455,1.69566 -1.57596,2.00613 -0.26753,2.00613 0.8514,0 1.83174,-0.73941 2.17853,-1.64313 z m -9.62671,-1.28503 c 2.04059,-1.06048 6.18516,-4.19936 9.21016,-6.97528 3.025,-2.77592 6.13158,-5.05825 6.90351,-5.07185 0.77193,-0.0136 3.89481,-1.20328 6.93973,-2.64376 3.04493,-1.44048 7.58835,-2.83125 10.0965,-3.09059 2.50814,-0.25935 4.68951,-0.59753 4.84749,-0.75151 0.62936,-0.61346 -6.22758,-12.2265 -8.89019,-15.05659 -1.56153,-1.65976 -3.34198,-4.46016 -3.95654,-6.22311 -0.63531,-1.82244 -2.5896,-4.11523 -4.52969,-5.31428 -1.87677,-1.15989 -3.97446,-2.88165 -4.66156,-3.82612 -1.82132,-2.50358 -16.93139,-13.76109 -21.2072,-15.80008 -3.17658,-1.5148 -3.78255,-1.55208 -4.58584,-0.28205 -0.50907,0.80486 -0.93248,2.53987 -0.9409,3.85558 -0.008,1.3157 -0.93477,5.47955 -2.05855,9.25299 -1.6349,5.48971 -3.34868,8.40901 -8.57548,14.60781 -7.66258,9.08754 -8.59613,11.05119 -7.75492,16.31185 0.48056,3.00526 1.39306,4.40207 3.87973,5.93891 3.92253,2.42426 11.11203,10.06401 12.65241,13.44477 1.00373,2.20294 2.30481,2.78289 7.63134,3.40164 0.70941,0.0824 2.95941,-0.71784 5,-1.77833 z m -87.51498,-4.58492 c 2.07618,-2.99046 6.19417,-7.13588 9.1511,-9.21206 4.67054,-3.27935 5.42663,-4.27879 5.76007,-7.6139 0.54857,-5.48699 -0.88513,-8.05591 -10.2602,-18.38431 -1.60921,-1.77284 -2.92583,-3.87387 -2.92583,-4.66896 0,-0.79509 -0.63702,-2.71957 -1.4156,-4.27664 -3.98915,-7.97782 -4.3019,-9.04705 -4.48436,-15.33104 -0.0959,-3.30153 -0.38884,-4.10051 -1.10004,-3 -0.67672,1.04715 -0.974,1.11349 -0.98469,0.21974 -0.0274,-2.28777 -22.83135,13.69084 -29.33785,20.55685 -8.40417,8.86852 -18.11368,23.52671 -17.20465,25.9734 0.25543,0.6875 0.0285,1.25 -0.50419,1.25 -0.53274,0 -0.9689,0.3375 -0.96925,0.75 -3.4e-4,0.4125 2.48276,0.69357 5.518,0.62461 3.03524,-0.069 5.76208,0.26853 6.05964,0.75 0.29756,0.48146 1.61565,0.87539 2.92909,0.87539 3.44757,0 10.65764,4.10608 15.996,9.10959 7.12661,6.6796 9.42285,7.88084 14.9979,7.84588 4.91261,-0.0308 5.06597,-0.12638 8.77486,-5.46855 z m 30.1207,2.26308 c 2.96215,-4.62306 3.68832,-10.18205 2.59306,-19.85055 -1.27116,-11.22125 -2.59496,-14.39945 -5.99772,-14.39945 -3.27699,0 -5.00707,5.01792 -5.7206,16.592 -0.57395,9.31001 0.46556,14.17398 3.79239,17.74491 2.54809,2.73505 3.53504,2.71897 5.33287,-0.0869 z m 20.50887,0.86516 c 0.63212,-0.76166 1.42519,-4.33917 1.76238,-7.95002 0.92722,-9.92938 -1.94238,-22.08357 -6.22506,-26.36624 -1.84701,-1.84702 -2.19143,-1.68364 -4.05734,1.92462 -2.10458,4.06983 -3.74737,25.18286 -2.19618,28.22523 2.45602,4.81704 8.29285,7.08637 10.7162,4.16641 z m 50.8635,-1.61516 c 0.68696,-1.1 1.08995,-2 0.89553,-2 -0.19442,0 -1.16797,0.9 -2.16346,2 -0.99549,1.1 -1.39848,2 -0.89553,2 0.50294,0 1.4765,-0.9 2.16346,-2 z M 115.13134,151.18216 c 9.81519,-16.96808 23.7083,-30.32748 41.61493,-40.01628 5.19062,-2.80852 6.55684,-4.07261 7.23652,-6.6956 0.46083,-1.7784 0.62024,-3.45108 0.35425,-3.71707 -0.96055,-0.96055 -21.25624,10.90526 -26.51017,15.49908 -8.69371,7.60142 -15.15699,14.28313 -20.22552,20.90904 -4.93815,6.45546 -11.17962,17.10189 -12.38164,21.12004 -0.62327,2.08347 -0.40801,2.29141 2.07036,2 2.30683,-0.27124 3.60842,-1.78165 7.84127,-9.09921 z m 191.57531,8.74074 c 0,-0.29329 -1.2375,-2.82876 -2.75,-5.63438 -1.51249,-2.80563 -3.35718,-6.27817 -4.09928,-7.71676 -1.71196,-3.31869 -10.34584,-16.11561 -10.87294,-16.11561 -0.2177,0 -0.11088,0.5625 0.23738,1.25 0.34825,0.6875 -0.40833,-0.1 -1.6813,-1.75 -4.45181,-5.77038 -10.25141,-11.66471 -12.78199,-12.99079 -1.40353,-0.73547 -3.9874,-2.75295 -5.74193,-4.48328 -3.36298,-3.31657 -17.32656,-11.02593 -19.97074,-11.02593 -1.00545,0 -1.33912,0.55781 -0.94619,1.58179 0.33385,0.86998 0.60699,2.59632 0.60699,3.83631 0,1.7736 1.87335,3.36342 8.78211,7.45292 11.26018,6.66525 22.38873,17.21423 29.48208,27.94667 1.5203,2.30027 3.2078,4.1823 3.75,4.1823 0.54219,0 0.98581,0.68328 0.98581,1.51841 0,0.83512 1.15902,3.73498 2.5756,6.44414 2.27303,4.34709 3.00724,4.97128 6.25,5.31349 2.02093,0.21326 4.2369,0.4634 4.9244,0.55586 0.6875,0.0925 1.25,-0.0719 1.25,-0.36514 z m -78.5,-16.46676 c 2.04815,-2.26318 1.73544,-2.42021 -1.99507,-1.00187 -1.44391,0.54897 -2.34664,1.44897 -2.00609,2 0.92253,1.49268 1.98741,1.22704 4.00116,-0.99813 z m -41.49999,0.0352 c 0,-0.53065 -0.9,-1.44648 -2,-2.03518 -2.20261,-1.1788 -2.68759,-0.0876 -0.8,1.8 1.44583,1.44583 2.8,1.55957 2.8,0.23518 z m 47.99999,-7.69017 c 0,-0.36024 -0.9,0.1595 -2,1.15499 -1.1,0.99549 -2,2.19023 -2,2.65499 0,0.46475 0.9,-0.055 2,-1.15499 1.1,-1.1 2,-2.29474 2,-2.65499 z m -51.99999,3.27 c 0,-0.21174 -1.2375,-1.18141 -2.75,-2.1548 l -2.75001,-1.76981 1.90499,2.1548 c 1.68576,1.90682 3.59502,2.84674 3.59502,1.76981 z M 207.7724,95.42098 c 1.67848,-0.89829 1.93426,-2.15454 1.93426,-9.5 0,-7.24178 -0.30073,-8.76554 -2.08136,-10.54618 -1.92354,-1.92354 -2.21634,-1.9592 -3.86149,-0.47036 -5.47245,4.95251 -6.23505,14.46474 -1.53633,19.16345 2.71961,2.71962 2.90639,2.7652 5.54492,1.35309 z"
     id="path3400"
     inkscape:connector-curvature="0" />
</svg>
